   <svg width="100" height="100" viewBox="0 0 70 70" fill="none" xmlns="http://www.w3.org/2000/svg">
<g clip-path="url(#clip0_6_10)">
<path d="M35 51C48.8071 51 60 62.1929 60 76C60 89.8071 48.8071 101 35 101V89.8887C42.6706 89.8887 48.8887 83.6706 48.8887 76C48.8887 68.3294 42.6706 62.1113 35 62.1113L35 51Z" fill="#E8594E"/>
<g filter="url(#filter0_d_6_10)">
<rect x="49" width="11" height="38" fill="#5460D0"/>
</g>
<path d="M10 37C10 23.1929 21.1929 12 35 12C48.8071 12 60 23.1929 60 37H48.8887C48.8887 29.3294 42.6706 23.1113 35 23.1113C27.3294 23.1113 21.1113 29.3294 21.1113 37H10Z" fill="#E8594E"/>
<g filter="url(#filter1_d_6_10)">
<rect x="10" width="11" height="38" fill="#5460D0"/>
</g>
<path d="M60 37C60 50.8071 48.8071 62 35 62C21.1929 62 10 50.8071 10 37H21.1113C21.1113 44.6706 27.3294 50.8887 35 50.8887C42.6706 50.8887 48.8887 44.6706 48.8887 37H60Z" fill="#5460D0"/>
</g>
<defs>
<filter id="filter0_d_6_10" x="45" y="0" width="19" height="46" filterUnits="userSpaceOnUse" color-interpolation-filters="sRGB">
<feFlood flood-opacity="0" result="BackgroundImageFix"/>
<feColorMatrix in="SourceAlpha" type="matrix" values="0 0 0 0 0 0 0 0 0 0 0 0 0 0 0 0 0 0 127 0" result="hardAlpha"/>
<feOffset dy="4"/>
<feGaussianBlur stdDeviation="2"/>
<feComposite in2="hardAlpha" operator="out"/>
<feColorMatrix type="matrix" values="0 0 0 0 0 0 0 0 0 0 0 0 0 0 0 0 0 0 0.25 0"/>
<feBlend mode="normal" in2="BackgroundImageFix" result="effect1_dropShadow_6_10"/>
<feBlend mode="normal" in="SourceGraphic" in2="effect1_dropShadow_6_10" result="shape"/>
</filter>
<filter id="filter1_d_6_10" x="6" y="0" width="19" height="46" filterUnits="userSpaceOnUse" color-interpolation-filters="sRGB">
<feFlood flood-opacity="0" result="BackgroundImageFix"/>
<feColorMatrix in="SourceAlpha" type="matrix" values="0 0 0 0 0 0 0 0 0 0 0 0 0 0 0 0 0 0 127 0" result="hardAlpha"/>
<feOffset dy="4"/>
<feGaussianBlur stdDeviation="2"/>
<feComposite in2="hardAlpha" operator="out"/>
<feColorMatrix type="matrix" values="0 0 0 0 0 0 0 0 0 0 0 0 0 0 0 0 0 0 0.25 0"/>
<feBlend mode="normal" in2="BackgroundImageFix" result="effect1_dropShadow_6_10"/>
<feBlend mode="normal" in="SourceGraphic" in2="effect1_dropShadow_6_10" result="shape"/>
</filter>
<clipPath id="clip0_6_10">
<rect width="70" height="70" fill="white"/>
</clipPath>
</defs>
</svg>